<svg id="visual" viewBox="0 0 960 540" width="960" height="540" xmlns="http://www.w3.org/2000/svg" xmlns:xlink="http://www.w3.org/1999/xlink" version="1.1"><rect x="0" y="0" width="960" height="540" fill="#001122"></rect><defs><linearGradient id="grad1_0" x1="43.8%" y1="0%" x2="100%" y2="100%"><stop offset="14.444444444444446%" stop-color="#001122" stop-opacity="1"></stop><stop offset="85.55555555555554%" stop-color="#001122" stop-opacity="1"></stop></linearGradient></defs><defs><linearGradient id="grad2_0" x1="0%" y1="0%" x2="56.3%" y2="100%"><stop offset="14.444444444444446%" stop-color="#001122" stop-opacity="1"></stop><stop offset="85.55555555555554%" stop-color="#001122" stop-opacity="1"></stop></linearGradient></defs><g transform="translate(960, 0)"><path d="M0 378C-40.5 351 -81 323.9 -128.2 309.5C-175.4 295.1 -229.2 293.3 -267.3 267.3C-305.4 241.3 -327.8 191 -343.7 142.4C-359.5 93.8 -368.8 46.9 -378 0L0 0Z" fill="#50aabe"></path></g><g transform="translate(0, 540)"><path d="M0 -378C42.8 -354.5 85.5 -331 130.1 -314.1C174.7 -297.2 221.2 -286.8 260.2 -260.2C299.2 -233.6 330.8 -190.7 349.2 -144.7C367.6 -98.6 372.8 -49.3 378 0L0 0Z" fill="#50aabe"></path></g></svg>