<?xml version="1.0" standalone="no"?>
<svg xmlns:xlink="http://www.w3.org/1999/xlink" id="wave" style="transform:rotate(180deg); transition: 0.3s" viewBox="0 0 1440 490" version="1.1" xmlns="http://www.w3.org/2000/svg"><defs><linearGradient id="sw-gradient-0" x1="0" x2="0" y1="1" y2="0"><stop stop-color="rgba(242, 206, 213, 1)" offset="0%"/><stop stop-color="rgba(242, 206, 213, 1)" offset="100%"/></linearGradient></defs><path style="transform:translate(0, 0px); opacity:1" fill="url(#sw-gradient-0)" d="M0,49L48,98C96,147,192,245,288,245C384,245,480,147,576,106.2C672,65,768,82,864,98C960,114,1056,131,1152,187.8C1248,245,1344,343,1440,334.8C1536,327,1632,212,1728,163.3C1824,114,1920,131,2016,147C2112,163,2208,180,2304,204.2C2400,229,2496,261,2592,245C2688,229,2784,163,2880,147C2976,131,3072,163,3168,163.3C3264,163,3360,131,3456,155.2C3552,180,3648,261,3744,253.2C3840,245,3936,147,4032,89.8C4128,33,4224,16,4320,8.2C4416,0,4512,0,4608,49C4704,98,4800,196,4896,236.8C4992,278,5088,261,5184,285.8C5280,310,5376,376,5472,367.5C5568,359,5664,278,5760,269.5C5856,261,5952,327,6048,302.2C6144,278,6240,163,6336,98C6432,33,6528,16,6624,32.7C6720,49,6816,98,6864,122.5L6912,147L6912,490L6864,490C6816,490,6720,490,6624,490C6528,490,6432,490,6336,490C6240,490,6144,490,6048,490C5952,490,5856,490,5760,490C5664,490,5568,490,5472,490C5376,490,5280,490,5184,490C5088,490,4992,490,4896,490C4800,490,4704,490,4608,490C4512,490,4416,490,4320,490C4224,490,4128,490,4032,490C3936,490,3840,490,3744,490C3648,490,3552,490,3456,490C3360,490,3264,490,3168,490C3072,490,2976,490,2880,490C2784,490,2688,490,2592,490C2496,490,2400,490,2304,490C2208,490,2112,490,2016,490C1920,490,1824,490,1728,490C1632,490,1536,490,1440,490C1344,490,1248,490,1152,490C1056,490,960,490,864,490C768,490,672,490,576,490C480,490,384,490,288,490C192,490,96,490,48,490L0,490Z"/></svg>