<?xml version="1.0" standalone="no"?><svg xmlns="http://www.w3.org/2000/svg" viewBox="0 0 1440 320"><path fill="#F2BBBF" fill-opacity="1" d="M0,288L17.1,261.3C34.3,235,69,181,103,181.3C137.1,181,171,235,206,234.7C240,235,274,181,309,144C342.9,107,377,85,411,74.7C445.7,64,480,64,514,74.7C548.6,85,583,107,617,101.3C651.4,96,686,64,720,69.3C754.3,75,789,117,823,133.3C857.1,149,891,139,926,117.3C960,96,994,64,1029,80C1062.9,96,1097,160,1131,170.7C1165.7,181,1200,139,1234,117.3C1268.6,96,1303,96,1337,96C1371.4,96,1406,96,1423,96L1440,96L1440,320L1422.9,320C1405.7,320,1371,320,1337,320C1302.9,320,1269,320,1234,320C1200,320,1166,320,1131,320C1097.1,320,1063,320,1029,320C994.3,320,960,320,926,320C891.4,320,857,320,823,320C788.6,320,754,320,720,320C685.7,320,651,320,617,320C582.9,320,549,320,514,320C480,320,446,320,411,320C377.1,320,343,320,309,320C274.3,320,240,320,206,320C171.4,320,137,320,103,320C68.6,320,34,320,17,320L0,320Z"></path></svg>