<svg id="visual" viewBox="0 0 1020 500" width="1020" height="500" xmlns="http://www.w3.org/2000/svg" xmlns:xlink="http://www.w3.org/1999/xlink" version="1.1"><rect x="0" y="0" width="1020" height="500" fill="#002233"></rect><path d="M0 291L24.3 276.7C48.7 262.3 97.3 233.7 145.8 248.7C194.3 263.7 242.7 322.3 291.2 310C339.7 297.7 388.3 214.3 437 181.2C485.7 148 534.3 165 583 193.8C631.7 222.7 680.3 263.3 728.8 293C777.3 322.7 825.7 341.3 874.2 320.2C922.7 299 971.3 238 995.7 207.5L1020 177L1020 0L995.7 0C971.3 0 922.7 0 874.2 0C825.7 0 777.3 0 728.8 0C680.3 0 631.7 0 583 0C534.3 0 485.7 0 437 0C388.3 0 339.7 0 291.2 0C242.7 0 194.3 0 145.8 0C97.3 0 48.7 0 24.3 0L0 0Z" fill="#0066FF" stroke-linecap="round" stroke-linejoin="miter"></path></svg>